<?xml version="1.0" standalone="no"?>
<!DOCTYPE svg PUBLIC "-//W3C//DTD SVG 20010904//EN"
 "http://www.w3.org/TR/2001/REC-SVG-20010904/DTD/svg10.dtd">
<svg version="1.0" xmlns="http://www.w3.org/2000/svg"
 width="512.000000pt" height="512.000000pt" viewBox="0 0 512.000000 512.000000"
 preserveAspectRatio="xMidYMid meet">
<metadata>
Created by potrace 1.16, written by Peter Selinger 2001-2019
</metadata>
<g transform="translate(0.000000,512.000000) scale(0.100000,-0.100000)"
fill="#000000" stroke="none">
<path d="M2260 4785 c-190 -27 -358 -71 -523 -136 -765 -305 -1293 -982 -1403
-1799 -18 -135 -18 -445 0 -580 100 -737 544 -1370 1198 -1705 316 -162 600
-234 964 -242 305 -8 518 22 779 108 143 48 385 164 510 246 551 361 912 937
1001 1593 18 135 18 445 0 580 -66 489 -275 922 -616 1274 -183 189 -378 330
-625 451 -230 113 -442 177 -689 210 -143 18 -461 18 -596 0z m570 -331 c844
-123 1502 -781 1625 -1625 20 -138 20 -400 0 -538 -111 -761 -667 -1386 -1406
-1580 -174 -45 -301 -62 -483 -62 -183 0 -325 18 -491 60 -659 171 -1195 705
-1365 1363 -43 168 -60 304 -60 488 0 396 106 744 325 1070 252 375 661 667
1093 780 243 64 517 80 762 44z"/>
<path d="M1558 3354 c-53 -16 -83 -48 -98 -105 -7 -24 -9 -273 -8 -706 3 -758
0 -723 82 -763 41 -19 59 -20 557 -20 491 0 515 1 546 20 17 10 37 29 44 41
17 33 14 115 -6 145 -34 52 -51 54 -490 54 l-405 0 0 225 0 224 374 3 c362 3
375 4 403 24 60 45 64 141 7 195 l-26 24 -379 3 -379 3 0 194 0 195 390 0
c415 0 432 2 474 49 11 12 21 41 23 68 6 60 -25 110 -77 129 -54 19 -968 18
-1032 -2z"/>
<path d="M2854 2932 c-59 -37 -59 -38 -59 -592 0 -467 1 -507 18 -538 53 -97
211 -97 264 0 16 29 19 71 24 363 6 349 8 362 57 437 66 101 234 141 317 77
71 -57 84 -140 85 -539 0 -330 2 -343 70 -388 29 -20 45 -23 93 -20 46 4 63
10 87 33 17 16 35 45 41 65 7 22 9 178 7 435 -3 396 -3 401 -27 460 -17 41
-42 78 -80 116 -71 70 -142 100 -260 107 -147 8 -251 -28 -353 -126 l-58 -55
0 32 c0 42 -22 91 -54 120 -36 34 -127 41 -172 13z"/>
</g>
</svg>
