<?xml version="1.0" standalone="no"?>
<!DOCTYPE svg PUBLIC "-//W3C//DTD SVG 20010904//EN"
 "http://www.w3.org/TR/2001/REC-SVG-20010904/DTD/svg10.dtd">
<svg version="1.0" xmlns="http://www.w3.org/2000/svg"
 width="512.000000pt" height="512.000000pt" viewBox="0 0 512.000000 512.000000"
 preserveAspectRatio="xMidYMid meet">
<metadata>
Created by potrace 1.16, written by Peter Selinger 2001-2019
</metadata>
<g transform="translate(0.000000,512.000000) scale(0.100000,-0.100000)"
fill="#000000" stroke="none">
<path d="M3307 5102 c-15 -16 -17 -45 -17 -204 0 -164 2 -187 18 -200 27 -23
49 -28 80 -17 45 16 52 44 52 223 0 150 -2 165 -21 190 -25 32 -86 37 -112 8z"/>
<path d="M2342 4710 c-27 -11 -45 -55 -37 -89 8 -32 207 -235 251 -256 39 -18
75 -8 100 29 27 42 10 73 -104 189 -132 134 -156 148 -210 127z"/>
<path d="M4188 4593 c-117 -117 -128 -130 -128 -163 0 -59 49 -89 103 -66 18
7 83 65 145 128 95 98 112 120 112 147 0 40 -38 81 -76 81 -21 0 -55 -27 -156
-127z"/>
<path d="M3250 4423 c-119 -12 -284 -74 -387 -144 -246 -169 -392 -488 -353
-776 22 -167 80 -304 216 -510 l74 -113 -35 -46 c-46 -59 -59 -111 -59 -219 0
-72 4 -100 22 -140 34 -74 75 -112 136 -125 l51 -10 24 -68 c42 -118 90 -214
124 -246 l34 -32 -146 -191 -146 -191 -730 -4 c-708 -4 -732 -5 -811 -25 -252
-67 -422 -181 -538 -360 -61 -95 -60 -92 -262 -654 -184 -512 -186 -522 -141
-554 31 -21 563 -22 592 -1 12 9 41 78 76 182 l57 169 1 -166 c1 -147 3 -168
19 -182 17 -16 82 -17 729 -17 675 0 711 1 726 18 15 17 17 59 17 398 0 223 4
394 10 415 16 56 51 102 100 129 41 22 58 25 215 30 159 5 174 7 225 32 30 15
69 42 87 60 64 68 416 535 435 578 38 86 24 211 -33 291 l-19 27 35 27 c51 39
82 90 130 218 l42 112 46 12 c67 16 102 46 134 111 26 52 28 66 27 167 0 121
-11 159 -64 218 l-30 35 76 113 c91 136 165 285 196 394 29 103 32 304 5 404
-45 168 -103 267 -227 391 -187 187 -419 270 -680 243z m250 -168 c184 -44
366 -187 448 -355 23 -47 49 -114 59 -150 22 -84 22 -226 0 -310 -25 -96 -97
-238 -193 -379 -117 -175 -103 -161 -168 -161 l-56 0 0 200 0 200 73 0 c125 0
216 63 253 174 65 194 -119 381 -317 323 -69 -21 -121 -64 -153 -129 -22 -43
-26 -66 -26 -135 l0 -83 -54 0 -53 0 -6 84 c-7 97 -21 137 -67 190 -53 59
-102 81 -190 81 -88 0 -136 -21 -192 -83 -70 -78 -84 -197 -33 -291 51 -94
121 -131 245 -131 l80 0 0 -200 0 -200 -88 0 -88 0 -98 147 c-171 258 -222
396 -214 578 15 304 216 547 523 630 68 19 235 18 315 0z m-416 -609 c51 -21
66 -50 66 -128 l0 -68 -66 0 c-62 0 -68 2 -100 34 -56 56 -42 130 30 162 38
16 31 16 70 0z m659 -24 c32 -35 39 -68 22 -108 -18 -44 -60 -64 -135 -64
l-60 0 0 63 c0 77 24 122 72 135 45 11 72 5 101 -26z m-303 -522 l0 -200 -65
0 -65 0 0 200 0 200 65 0 65 0 0 -200z m367 -377 c22 -33 24 -143 4 -191 l-14
-32 -456 2 -456 3 -13 28 c-19 38 -17 148 3 186 l16 31 449 0 450 0 17 -27z
m-207 -388 c0 -18 -64 -168 -81 -189 -20 -26 -21 -26 -173 -26 -188 0 -183 -2
-235 138 l-30 82 259 0 c143 0 260 -2 260 -5z m-222 -409 c80 -42 120 -128 92
-200 -11 -29 -351 -475 -396 -519 -55 -55 -76 -61 -255 -67 -161 -6 -168 -7
-231 -38 -77 -38 -130 -92 -167 -171 l-26 -56 -3 -363 -3 -362 -594 0 -595 0
0 359 c0 347 -1 359 -21 385 -23 30 -72 35 -104 12 -13 -9 -58 -132 -140 -382
l-121 -369 -168 -3 c-133 -2 -167 0 -164 10 3 7 74 204 158 438 83 234 168
453 187 488 19 35 64 95 100 132 100 107 209 168 375 212 81 21 99 22 828 25
558 3 748 7 759 16 8 7 86 106 174 220 88 115 174 217 191 228 37 22 87 24
124 5z"/>
<path d="M1950 3733 c-56 -21 -70 -96 -24 -132 25 -19 40 -21 190 -21 180 0
206 6 225 53 15 36 -2 74 -41 94 -25 13 -318 18 -350 6z"/>
<path d="M4435 3733 c-60 -15 -77 -94 -29 -132 25 -19 40 -21 190 -21 100 0
173 4 188 11 59 27 55 117 -6 138 -30 11 -303 14 -343 4z"/>
<path d="M1700 2995 c-214 -52 -381 -203 -463 -419 -29 -76 -31 -90 -31 -221
-1 -128 1 -147 26 -213 38 -106 83 -177 163 -257 178 -179 450 -238 691 -151
288 105 469 409 424 711 -40 268 -229 479 -486 545 -91 23 -239 26 -324 5z
m269 -150 c374 -89 519 -541 264 -825 -196 -218 -523 -229 -730 -24 -204 204
-200 523 10 721 128 121 290 167 456 128z"/>
</g>
</svg>
