<?xml version="1.0" standalone="no"?>
<!DOCTYPE svg PUBLIC "-//W3C//DTD SVG 20010904//EN"
 "http://www.w3.org/TR/2001/REC-SVG-20010904/DTD/svg10.dtd">
<svg version="1.0" xmlns="http://www.w3.org/2000/svg"
 width="512.000000pt" height="512.000000pt" viewBox="0 0 512.000000 512.000000"
 preserveAspectRatio="xMidYMid meet">

<g transform="translate(0.000000,512.000000) scale(0.100000,-0.100000)"
fill="#000000" stroke="none">
<path d="M2555 5064 c-647 -65 -1160 -333 -1441 -755 -144 -217 -213 -414
-254 -734 -26 -199 -60 -354 -111 -510 -56 -169 -107 -266 -189 -360 -100
-116 -135 -183 -134 -265 0 -74 22 -125 76 -177 46 -45 98 -63 179 -66 64 -2
70 -4 65 -22 -16 -65 -28 -168 -22 -199 4 -19 22 -58 41 -86 30 -45 34 -56 28
-95 -8 -64 3 -107 44 -167 36 -52 36 -54 44 -181 6 -120 9 -133 43 -202 64
-130 196 -227 354 -260 88 -19 142 -19 290 2 107 14 126 15 151 2 44 -22 190
-196 224 -268 29 -61 31 -72 38 -245 8 -192 12 -228 36 -316 18 -64 68 -120
106 -120 14 0 423 117 909 261 791 234 886 264 910 289 l27 29 -6 233 c-8 325
17 513 103 779 72 222 145 377 334 699 195 331 262 486 290 662 26 163 -3 614
-56 883 -79 395 -366 729 -819 951 -321 157 -642 232 -1025 239 -107 1 -213 1
-235 -1z m548 -235 c415 -59 760 -211 1000 -439 110 -104 171 -184 231 -299
62 -120 90 -224 120 -451 36 -270 47 -440 35 -558 -18 -176 -71 -300 -289
-672 -190 -326 -299 -567 -366 -809 -66 -241 -99 -504 -92 -741 l3 -124 -765
-227 c-526 -156 -767 -223 -771 -215 -4 6 -9 85 -12 176 -4 100 -12 189 -21
225 -29 110 -88 212 -195 336 -150 176 -205 195 -456 164 -197 -25 -291 -11
-358 53 -57 54 -70 95 -78 247 -7 150 -18 191 -63 238 l-27 29 26 43 c48 84
25 164 -56 185 -21 6 -39 12 -39 13 0 1 11 58 25 127 13 69 25 143 25 165 0
86 -50 114 -217 122 -77 4 -117 10 -124 19 -14 17 -10 22 78 122 33 39 80 101
102 140 115 192 214 534 256 877 44 363 168 623 401 844 270 256 641 397 1139
435 100 7 353 -5 488 -25z"/>
<path d="M2838 4461 c-82 -16 -100 -47 -114 -189 -7 -81 -17 -96 -74 -113 -37
-11 -39 -11 -100 37 -119 94 -146 102 -209 63 -52 -31 -194 -179 -215 -222
-25 -53 -15 -83 59 -178 l63 -83 -15 -40 c-9 -23 -19 -44 -22 -48 -4 -4 -52
-14 -107 -22 -170 -23 -178 -35 -178 -246 0 -211 8 -223 178 -246 55 -8 103
-18 107 -22 3 -4 13 -25 22 -48 l15 -40 -63 -83 c-35 -45 -66 -95 -70 -111
-10 -45 20 -95 110 -186 148 -150 174 -155 301 -58 85 65 88 66 123 55 61 -19
63 -23 77 -130 15 -117 23 -135 67 -157 38 -20 183 -30 283 -19 58 6 73 12 99
39 29 28 33 40 45 138 l13 106 41 16 c23 9 46 16 52 16 5 0 45 -27 88 -60 42
-32 86 -62 97 -65 46 -15 87 5 165 78 181 168 189 200 89 332 -36 46 -65 88
-65 92 0 19 36 93 45 93 6 0 54 7 108 14 151 22 167 46 167 246 0 203 -15 224
-176 246 -60 9 -109 16 -109 17 0 1 -8 19 -18 40 -9 21 -17 42 -17 47 0 6 29
49 65 95 100 132 92 164 -89 332 -78 73 -119 93 -164 79 -11 -4 -55 -34 -98
-66 -42 -33 -82 -60 -87 -60 -6 0 -30 7 -53 16 l-41 16 -13 106 c-20 162 -48
182 -250 180 -52 0 -111 -4 -132 -7z m172 -213 c0 -7 6 -55 14 -107 10 -64 20
-100 33 -112 10 -11 55 -32 98 -48 44 -15 96 -38 115 -49 63 -39 94 -31 197
49 35 27 66 49 71 49 5 0 18 -10 30 -23 l21 -22 -36 -45 c-55 -69 -93 -132
-93 -155 0 -11 10 -38 22 -60 12 -22 35 -78 52 -124 39 -107 53 -117 179 -132
l97 -12 0 -37 0 -37 -97 -12 c-126 -15 -140 -25 -179 -132 -17 -46 -41 -103
-53 -127 -32 -58 -23 -91 49 -182 l59 -75 -21 -22 c-12 -13 -26 -23 -31 -23
-5 0 -37 22 -71 49 -101 80 -133 88 -196 49 -19 -11 -71 -34 -115 -49 -43 -16
-88 -37 -98 -48 -13 -12 -23 -48 -33 -112 -8 -52 -14 -100 -14 -106 0 -8 -14
-13 -35 -13 -39 0 -37 -4 -54 123 -6 42 -17 86 -23 97 -13 20 -65 50 -88 50
-7 0 -50 18 -96 40 -46 22 -97 40 -113 40 -20 0 -53 -18 -107 -60 -43 -33 -83
-60 -89 -60 -20 0 -48 38 -39 52 4 7 32 45 61 84 64 85 68 118 24 197 -16 28
-37 78 -46 109 -22 79 -52 102 -150 117 -42 6 -85 11 -95 11 -17 0 -20 7 -20
39 l0 39 68 7 c143 14 171 32 198 124 8 31 29 80 45 108 45 82 41 113 -32 207
-63 82 -66 95 -27 120 12 7 34 -4 99 -52 96 -72 114 -75 197 -33 31 15 75 34
97 41 65 20 99 39 113 60 6 11 17 55 23 97 17 127 15 123 54 123 21 0 35 -5
35 -12z"/>
<path d="M2890 3867 c-139 -31 -260 -129 -326 -263 -38 -76 -39 -81 -39 -184
0 -103 1 -108 39 -184 70 -142 199 -240 347 -266 278 -48 561 239 510 516 -46
250 -300 432 -531 381z m171 -217 c50 -14 114 -72 134 -122 24 -60 23 -161 -2
-218 -24 -55 -79 -105 -130 -119 -121 -34 -243 4 -298 94 -27 44 -30 56 -30
135 0 79 3 91 30 135 55 89 177 128 296 95z"/>
</g>
</svg>
