<?xml version="1.0" standalone="no"?>
<!DOCTYPE svg PUBLIC "-//W3C//DTD SVG 20010904//EN"
 "http://www.w3.org/TR/2001/REC-SVG-20010904/DTD/svg10.dtd">
<svg version="1.0" xmlns="http://www.w3.org/2000/svg"
 width="200.000000pt" height="200.000000pt" viewBox="0 0 200.000000 200.000000"
 preserveAspectRatio="xMidYMid meet">
<metadata>
Created by potrace 1.16, written by Peter Selinger 2001-2019
</metadata>
<g transform="translate(0.000000,200.000000) scale(0.100000,-0.100000)"
fill="#000000" stroke="none">
<path d="M915 1811 c-87 -23 -159 -84 -197 -166 -33 -73 -31 -181 5 -251 68
-132 211 -191 357 -148 75 22 162 109 184 184 33 110 12 209 -59 288 -25 27
-65 59 -91 71 -50 24 -151 35 -199 22z"/>
<path d="M398 1223 c-28 -32 -278 -508 -278 -529 0 -31 19 -49 98 -89 60 -31
80 -37 113 -32 22 3 49 13 60 23 19 17 21 17 54 0 l33 -18 -19 -32 c-27 -44
-25 -91 6 -121 13 -14 33 -25 45 -25 15 0 20 -6 20 -26 0 -15 12 -38 30 -56
25 -24 37 -29 62 -26 26 4 36 0 56 -23 18 -23 32 -29 62 -29 29 0 46 -7 68
-30 51 -51 113 -34 157 43 9 16 13 15 50 -10 53 -37 113 -38 149 -4 14 14 26
29 26 35 0 6 21 18 48 26 36 11 51 23 63 47 9 18 19 30 22 27 11 -11 77 17 92
39 8 12 15 34 15 49 0 17 5 28 14 28 23 0 66 59 66 90 0 23 5 29 32 34 22 4
34 2 37 -6 7 -22 49 -57 77 -64 30 -8 129 9 181 31 20 8 35 23 38 38 9 34
-139 578 -162 595 -23 16 -36 15 -117 -8 -87 -25 -114 -43 -133 -88 -8 -20
-20 -40 -27 -44 -25 -17 -83 -6 -159 28 -85 39 -137 42 -202 13 -17 -8 -70
-14 -125 -15 -53 0 -122 -8 -156 -17 -34 -10 -83 -17 -108 -17 -40 0 -46 3
-46 20 0 44 -30 78 -104 119 -80 45 -115 50 -138 24z m1339 -309 c34 -126 65
-241 68 -255 5 -24 2 -26 -45 -37 -67 -16 -95 -15 -109 2 -13 15 -131 420
-131 447 0 9 8 23 18 32 18 16 110 47 127 43 6 -1 38 -106 72 -232z m-859 50
c-65 -64 -68 -69 -68 -114 0 -38 5 -51 28 -73 43 -42 90 -37 185 18 43 26 83
43 90 39 55 -32 327 -228 331 -239 5 -14 -18 -45 -32 -45 -4 0 -45 27 -92 60
-89 63 -123 72 -128 33 -3 -17 11 -32 64 -70 110 -78 121 -89 108 -110 -6 -10
-17 -19 -25 -21 -8 -1 -61 31 -119 73 -57 41 -108 75 -112 75 -15 0 -37 -31
-31 -45 3 -9 43 -43 89 -76 46 -33 84 -66 84 -73 0 -8 -7 -20 -16 -27 -19 -15
-21 -14 -149 75 -85 59 -115 66 -115 26 0 -15 -7 -20 -24 -20 -19 0 -27 8 -36
35 -13 39 -35 55 -74 55 -21 0 -26 5 -26 25 0 47 -61 85 -109 67 -19 -7 -29
-3 -53 21 -25 25 -34 29 -66 24 -20 -4 -44 -15 -52 -25 -14 -17 -17 -17 -43
-2 -15 9 -29 19 -32 22 -3 3 35 77 84 164 l90 159 48 -3 c26 -1 82 6 123 17
41 11 91 20 110 20 l35 1 -67 -66z"/>
</g>
</svg>
